<?xml version="1.0" encoding="utf-8"?>
<svg xmlns="http://www.w3.org/2000/svg" viewBox="210 445 175 175">
  <defs>
    <linearGradient id="logo-grad" x1="300.89" y1="425.86" x2="298.34" y2="646.83" gradientUnits="userSpaceOnUse">
      <stop offset="0" stop-color="#FFCD00"/>
      <stop offset=".32" stop-color="#FFBF00"/>
      <stop offset=".92" stop-color="#FF9A00"/>
      <stop offset="1" stop-color="#FF9500"/>
    </linearGradient>
  </defs>
  <path fill="url(#logo-grad)" d="M273.3,611.4l-45.9-26.6c-3-1.8-4.9-5-4.9-8.6l0.2-55.7c0-2.2,3.2-2.7,3.7-0.5c4.4,17.2,11.2,34,20.5,50.1 c8.2,14.2,17.9,27,28.8,38.3C277.2,610.1,275.2,612.5,273.3,611.4z"/>
  <path fill="url(#logo-grad)" d="M350,597.6l-22.6,12.9c-1,0.6-2.2,0.5-3.2-0.1c-20.5-13.9-38.2-32.4-51.4-55.3c-13.9-24-21.2-50.1-22.4-76.1 c-0.1-1.1,0.5-2.2,1.5-2.7l22.2-12.7c1.8-1,4.1,0.1,4.3,2.2c3.4,24.6,11.6,49,24.8,71.9c12.6,21.7,28.7,40.2,47.1,55.1 C352,594,351.8,596.5,350,597.6z"/>
  <path fill="url(#logo-grad)" d="M376.7,499.2l-0.2,69.9c0,2.4-2.8,3.8-4.7,2.4c-16.8-13-31.4-29.4-42.6-48.9c-11.7-20.2-18.7-41.9-21.4-63.8 c-0.3-2.4,2.3-4.1,4.4-2.9l59.5,34.5C374.8,492.3,376.7,495.6,376.7,499.2z"/>
</svg>
