<?xml version="1.0" encoding="UTF-8"?>
<svg data-id="Layer_1" data-name="Layer 1" xmlns="http://www.w3.org/2000/svg" xmlns:xlink="http://www.w3.org/1999/xlink" viewBox="0 0 1080 1080">
  <defs>
    <style>
      .cls-1 {
        fill: url(#linear-gradient);
      }
    </style>
    <linearGradient id="linear-gradient" x1="543.72" y1="216.88" x2="536.28" y2="863.12" gradientUnits="userSpaceOnUse">
      <stop offset="0" stop-color="#ffcd00"/>
      <stop offset=".32" stop-color="#ffbf00"/>
      <stop offset=".92" stop-color="#ff9a00"/>
      <stop offset="1" stop-color="#ff9500"/>
    </linearGradient>
  </defs>
  <rect x="0" width="1080" height="1080"/>
  <g>
    <path class="cls-1" d="M829.85,415.68v248.64c0,26.64-14.2,51.24-37.27,64.54l-215.32,124.32c-23.07,13.3-51.46,13.3-74.53,0l-215.32-124.32c-23.07-13.3-37.27-37.9-37.27-64.54v-248.64c0-26.61,14.2-51.2,37.27-64.54l215.32-124.32c23.07-13.3,51.46-13.3,74.53,0l215.32,124.32c23.07,13.34,37.27,37.94,37.27,64.54Z"/>
    <g>
      <path d="M462.97,759.53l-134.16-77.92c-8.91-5.18-14.35-14.68-14.31-25.01l.45-162.81c0-6.56,9.32-7.75,10.92-1.38,12.86,50.2,32.68,99.43,59.85,146.45,24,41.51,52.36,78.93,84.18,112.02,4.43,4.66-1.38,11.89-6.93,8.65Z"/>
      <path d="M687.28,718.99l-66,37.86c-2.87,1.68-6.48,1.56-9.24-.3-59.92-40.51-111.8-94.88-150.37-161.58-40.66-70.32-61.94-146.6-65.59-222.7-.15-3.28,1.57-6.34,4.4-7.97l64.88-37.27c5.29-3.06,11.89,.26,12.71,6.34,10.02,72.07,33.84,143.44,72.45,210.29,36.74,63.58,83.81,117.61,137.81,161.21,4.73,3.8,4.25,11.11-1.04,14.12Z"/>
      <path d="M765.53,431.44l-.56,204.33c0,7.08-8.24,11.25-13.83,6.93-49.12-38.01-91.75-85.97-124.69-142.95-34.21-59.18-54.74-122.57-62.53-186.52-.86-7.04,6.86-11.96,13.01-8.38l173.88,100.99c9.13,5.29,14.72,15.05,14.72,25.6Z"/>
    </g>
  </g>
</svg>